<?xml version="1.0" encoding="UTF-8" standalone="no"?>
<svg width="321.028mm" height="156.986mm"
 viewBox="0 0 910 445"
 xmlns="http://www.w3.org/2000/svg" xmlns:xlink="http://www.w3.org/1999/xlink"  version="1.2" baseProfile="tiny">
<title>Qt Svg Document</title>
<desc>Generated with Qt</desc>
<defs>
</defs>
<g fill="none" stroke="black" stroke-width="1" fill-rule="evenodd" stroke-linecap="square" stroke-linejoin="bevel" >

<g fill="none" stroke="#ff0000" stroke-opacity="1" stroke-width="1" stroke-linecap="square" stroke-linejoin="bevel" transform="matrix(1,0,0,1,-179,-157)"
font-family="Ubuntu" font-size="11" font-weight="400" font-style="normal" 
>
<polyline fill="none" vector-effect="non-scaling-stroke" points="802,229 667,229 " />
<polyline fill="none" vector-effect="non-scaling-stroke" points="802,454 761,459 " />
<polyline fill="none" vector-effect="non-scaling-stroke" points="240,298 240,350 " />
<polyline fill="none" vector-effect="non-scaling-stroke" points="334,380 462,380 " />
</g>

<g fill="#ff0000" fill-opacity="1" stroke="none" transform="matrix(1,0,0,1,0,0)"
font-family="Ubuntu" font-size="11" font-weight="400" font-style="normal" 
>
<path vector-effect="non-scaling-stroke" fill-rule="evenodd" d="M391.5,229.5 L392.5,229.5 L392.5,230.5 L391.5,230.5 L391.5,229.5"/>
</g>

<g fill="none" stroke="#ff0000" stroke-opacity="1" stroke-width="1" stroke-linecap="square" stroke-linejoin="bevel" transform="matrix(1,0,0,1,-179,-157)"
font-family="Ubuntu" font-size="11" font-weight="400" font-style="normal" 
>
<polyline fill="none" vector-effect="non-scaling-stroke" points="571,387 678,459 " />
<polyline fill="none" vector-effect="non-scaling-stroke" points="612,337 802,337 " />
<polyline fill="none" vector-effect="non-scaling-stroke" points="462,536 462,389 " />
<polyline fill="none" vector-effect="non-scaling-stroke" points="559,539 559,483 " />
<polyline fill="none" vector-effect="non-scaling-stroke" points="559,483 559,389 " />
<polyline fill="none" vector-effect="non-scaling-stroke" points="508,446 508,389 " />
</g>

<g fill="#ff0000" fill-opacity="1" stroke="none" transform="matrix(1,0,0,1,-179,-157)"
font-family="Ubuntu" font-size="11" font-weight="400" font-style="normal" 
>
<path vector-effect="non-scaling-stroke" fill-rule="evenodd" d="M802,454 L791,451 L780,457 L792,459 L802,454"/>
</g>

<g fill="#ffffff" fill-opacity="1" stroke="none" transform="matrix(1,0,0,1,-179,-157)"
font-family="Ubuntu" font-size="11" font-weight="400" font-style="normal" 
>
<path vector-effect="non-scaling-stroke" fill-rule="evenodd" d="M462,389 L455,400 L469,400 L462,389"/>
</g>

<g fill="#ffffff" fill-opacity="1" stroke="none" transform="matrix(1,0,0,1,-179,-157)"
font-family="Ubuntu" font-size="11" font-weight="400" font-style="normal" 
>
<path vector-effect="non-scaling-stroke" fill-rule="evenodd" d="M559,389 L552,400 L566,400 L559,389"/>
</g>

<g fill="#ffffff" fill-opacity="1" stroke="none" transform="matrix(1,0,0,1,-179,-157)"
font-family="Ubuntu" font-size="11" font-weight="400" font-style="normal" 
>
<path vector-effect="non-scaling-stroke" fill-rule="evenodd" d="M508,389 L501,400 L515,400 L508,389"/>
</g>

<g fill="none" stroke="#ff0000" stroke-opacity="1" stroke-width="1" stroke-linecap="square" stroke-linejoin="bevel" transform="matrix(1,0,0,1,-179,-157)"
font-family="Ubuntu" font-size="11" font-weight="400" font-style="normal" 
>
<polyline fill="none" vector-effect="non-scaling-stroke" points="667,229 678,222 " />
<polyline fill="none" vector-effect="non-scaling-stroke" points="667,229 678,236 " />
</g>

<g fill="#ffffc0" fill-opacity="1" stroke="#ff0000" stroke-opacity="1" stroke-width="1" stroke-linecap="square" stroke-linejoin="bevel" transform="matrix(1,0,0,1,-179,-157)"
font-family="Ubuntu" font-size="11" font-weight="400" font-style="normal" 
>
<path vector-effect="non-scaling-stroke" fill-rule="evenodd" d="M179,178 L354,178 L354,298 L179,298 L179,178"/>
</g>

<g fill="#ffffc0" fill-opacity="1" stroke="#ff0000" stroke-opacity="1" stroke-dasharray="1,2" stroke-dashoffset="0" stroke-width="1" stroke-linecap="square" stroke-linejoin="bevel" transform="matrix(1,0,0,1,-179,-157)"
font-family="Ubuntu" font-size="11" font-weight="400" font-style="normal" 
>
<path vector-effect="non-scaling-stroke" fill-rule="evenodd" d="M310,157 L397,157 L397,183 L310,183 L310,157"/>
</g>

<g fill="#ffffc0" fill-opacity="1" stroke="#000000" stroke-opacity="1" stroke-width="1" stroke-linecap="square" stroke-linejoin="bevel" transform="matrix(1,0,0,1,-179,-157)"
font-family="Sans Serif" font-size="10" font-weight="400" font-style="normal" 
>
<text fill="#000000" fill-opacity="1" stroke="none" xml:space="preserve" x="315" y="173" font-family="Sans Serif" font-size="10" font-weight="400" font-style="normal" 
 >Representer</text>
</g>

<g fill="#ffffc0" fill-opacity="1" stroke="#000000" stroke-opacity="1" stroke-width="1" stroke-linecap="square" stroke-linejoin="bevel" transform="matrix(1,0,0,1,-179,-157)"
font-family="Sans Serif" font-size="10" font-weight="700" font-style="normal" 
>
<text fill="#000000" fill-opacity="1" stroke="none" xml:space="preserve" x="228.5" y="189" font-family="Sans Serif" font-size="10" font-weight="700" font-style="normal" 
 >DataManager</text>
</g>

<g fill="#ffffc0" fill-opacity="1" stroke="#ff0000" stroke-opacity="1" stroke-width="1" stroke-linecap="square" stroke-linejoin="bevel" transform="matrix(1,0,0,1,-179,-157)"
font-family="Sans Serif" font-size="10" font-weight="700" font-style="normal" 
>
<polyline fill="none" vector-effect="non-scaling-stroke" points="179,194 353,194 " />
</g>

<g fill="#ffffc0" fill-opacity="1" stroke="#ff0000" stroke-opacity="1" stroke-width="1" stroke-linecap="square" stroke-linejoin="bevel" transform="matrix(1,0,0,1,-179,-157)"
font-family="Sans Serif" font-size="10" font-weight="400" font-style="normal" 
>
<polyline fill="none" vector-effect="non-scaling-stroke" points="179,202 353,202 " />
</g>

<g fill="#ffffc0" fill-opacity="1" stroke="#000000" stroke-opacity="1" stroke-width="1" stroke-linecap="square" stroke-linejoin="bevel" transform="matrix(1,0,0,1,-179,-157)"
font-family="Sans Serif" font-size="10" font-weight="400" font-style="normal" 
>
<text fill="#000000" fill-opacity="1" stroke="none" xml:space="preserve" x="184" y="213" font-family="Sans Serif" font-size="10" font-weight="400" font-style="normal" 
 >Load()</text>
</g>

<g fill="none" stroke="#000000" stroke-opacity="1" stroke-width="1" stroke-linecap="butt" stroke-linejoin="bevel" transform="matrix(1,0,0,1,-179,-157)"
font-family="Sans Serif" font-size="10" font-weight="400" font-style="normal" 
>
<polyline fill="none" vector-effect="none" points="184,214 216,214 " />
</g>

<g fill="#ffffc0" fill-opacity="1" stroke="#000000" stroke-opacity="1" stroke-width="1" stroke-linecap="square" stroke-linejoin="bevel" transform="matrix(1,0,0,1,-179,-157)"
font-family="Sans Serif" font-size="10" font-weight="400" font-style="normal" 
>
<text fill="#000000" fill-opacity="1" stroke="none" xml:space="preserve" x="184" y="229" font-family="Sans Serif" font-size="10" font-weight="400" font-style="normal" 
 >Save()</text>
</g>

<g fill="#ffffc0" fill-opacity="1" stroke="#000000" stroke-opacity="1" stroke-width="1" stroke-linecap="square" stroke-linejoin="bevel" transform="matrix(1,0,0,1,-179,-157)"
font-family="Sans Serif" font-size="10" font-weight="400" font-style="normal" 
>
<text fill="#000000" fill-opacity="1" stroke="none" xml:space="preserve" x="184" y="245" font-family="Sans Serif" font-size="10" font-weight="400" font-style="normal" 
 >AddDataset()</text>
</g>

<g fill="#ffffc0" fill-opacity="1" stroke="#000000" stroke-opacity="1" stroke-width="1" stroke-linecap="square" stroke-linejoin="bevel" transform="matrix(1,0,0,1,-179,-157)"
font-family="Sans Serif" font-size="10" font-weight="400" font-style="normal" 
>
<text fill="#000000" fill-opacity="1" stroke="none" xml:space="preserve" x="184" y="261" font-family="Sans Serif" font-size="10" font-weight="400" font-style="normal" 
 >GetSampleData()</text>
</g>

<g fill="#ffffc0" fill-opacity="1" stroke="#000000" stroke-opacity="1" stroke-width="1" stroke-linecap="square" stroke-linejoin="bevel" transform="matrix(1,0,0,1,-179,-157)"
font-family="Sans Serif" font-size="10" font-weight="400" font-style="normal" 
>
<text fill="#000000" fill-opacity="1" stroke="none" xml:space="preserve" x="184" y="277" font-family="Sans Serif" font-size="10" font-weight="400" font-style="normal" 
 >GetNumberOfSamples()</text>
</g>

<g fill="#ffffc0" fill-opacity="1" stroke="#000000" stroke-opacity="1" stroke-width="1" stroke-linecap="square" stroke-linejoin="bevel" transform="matrix(1,0,0,1,-179,-157)"
font-family="Sans Serif" font-size="10" font-weight="400" font-style="normal" 
>
<text fill="#000000" fill-opacity="1" stroke="none" xml:space="preserve" x="184" y="293" font-family="Sans Serif" font-size="10" font-weight="400" font-style="normal" 
 >GetCrossValidationFolds()</text>
</g>

<g fill="#ffffc0" fill-opacity="1" stroke="#ff0000" stroke-opacity="1" stroke-width="1" stroke-linecap="square" stroke-linejoin="bevel" transform="matrix(1,0,0,1,-179,-157)"
font-family="Sans Serif" font-size="10" font-weight="400" font-style="normal" 
>
<path vector-effect="non-scaling-stroke" fill-rule="evenodd" d="M678,459 L761,459 L761,501 L678,501 L678,459"/>
</g>

<g fill="#ffffc0" fill-opacity="1" stroke="#000000" stroke-opacity="1" stroke-width="1" stroke-linecap="square" stroke-linejoin="bevel" transform="matrix(1,0,0,1,-179,-157)"
font-family="Sans" font-size="10" font-weight="700" font-style="normal" 
>
<text fill="#000000" fill-opacity="1" stroke="none" xml:space="preserve" x="692.5" y="483" font-family="Sans" font-size="10" font-weight="700" font-style="normal" 
 >ModelInfo</text>
</g>

<g fill="none" stroke="#ff0000" stroke-opacity="1" stroke-width="1" stroke-linecap="square" stroke-linejoin="bevel" transform="matrix(1,0,0,1,-179,-157)"
font-family="Sans" font-size="10" font-weight="400" font-style="normal" 
>
<polyline fill="none" vector-effect="non-scaling-stroke" points="802,454 791,451 " />
<polyline fill="none" vector-effect="non-scaling-stroke" points="791,451 780,457 " />
<polyline fill="none" vector-effect="non-scaling-stroke" points="780,457 792,459 " />
<polyline fill="none" vector-effect="non-scaling-stroke" points="792,459 802,454 " />
<polyline fill="none" vector-effect="non-scaling-stroke" points="802,337 791,330 " />
<polyline fill="none" vector-effect="non-scaling-stroke" points="802,337 791,344 " />
<polyline fill="none" vector-effect="non-scaling-stroke" points="462,389 455,400 " />
<polyline fill="none" vector-effect="non-scaling-stroke" points="462,389 469,400 " />
<polyline fill="none" vector-effect="non-scaling-stroke" points="455,400 469,400 " />
<polyline fill="none" vector-effect="non-scaling-stroke" points="559,389 552,400 " />
<polyline fill="none" vector-effect="non-scaling-stroke" points="559,389 566,400 " />
<polyline fill="none" vector-effect="non-scaling-stroke" points="552,400 566,400 " />
<polyline fill="none" vector-effect="non-scaling-stroke" points="508,389 501,400 " />
<polyline fill="none" vector-effect="non-scaling-stroke" points="508,389 515,400 " />
<polyline fill="none" vector-effect="non-scaling-stroke" points="501,400 515,400 " />
</g>

<g fill="#ffffc0" fill-opacity="1" stroke="#ff0000" stroke-opacity="1" stroke-width="1" stroke-linecap="square" stroke-linejoin="bevel" transform="matrix(1,0,0,1,-179,-157)"
font-family="Sans" font-size="10" font-weight="400" font-style="normal" 
>
<path vector-effect="non-scaling-stroke" fill-rule="evenodd" d="M555,560 L769,560 L769,602 L555,602 L555,560"/>
</g>

<g fill="#ffffc0" fill-opacity="1" stroke="#ff0000" stroke-opacity="1" stroke-dasharray="1,2" stroke-dashoffset="0" stroke-width="1" stroke-linecap="square" stroke-linejoin="bevel" transform="matrix(1,0,0,1,-179,-157)"
font-family="Sans" font-size="10" font-weight="400" font-style="normal" 
>
<path vector-effect="non-scaling-stroke" fill-rule="evenodd" d="M725,539 L812,539 L812,565 L725,565 L725,539"/>
</g>

<g fill="#ffffc0" fill-opacity="1" stroke="#000000" stroke-opacity="1" stroke-width="1" stroke-linecap="square" stroke-linejoin="bevel" transform="matrix(1,0,0,1,-179,-157)"
font-family="Sans" font-size="10" font-weight="400" font-style="normal" 
>
<text fill="#000000" fill-opacity="1" stroke="none" xml:space="preserve" x="730" y="555" font-family="Sans" font-size="10" font-weight="400" font-style="normal" 
 >Representer</text>
</g>

<g fill="#ffffc0" fill-opacity="1" stroke="#000000" stroke-opacity="1" stroke-width="1" stroke-linecap="square" stroke-linejoin="bevel" transform="matrix(1,0,0,1,-179,-157)"
font-family="Sans" font-size="10" font-weight="700" font-style="normal" 
>
<text fill="#000000" fill-opacity="1" stroke="none" xml:space="preserve" x="587.5" y="584" font-family="Sans" font-size="10" font-weight="700" font-style="normal" 
 >PartiallyFixedModelBuilder</text>
</g>

<g fill="#ffffc0" fill-opacity="1" stroke="#ff0000" stroke-opacity="1" stroke-width="1" stroke-linecap="square" stroke-linejoin="bevel" transform="matrix(1,0,0,1,-179,-157)"
font-family="Sans" font-size="10" font-weight="400" font-style="normal" 
>
<path vector-effect="non-scaling-stroke" fill-rule="evenodd" d="M439,467 L576,467 L576,509 L439,509 L439,467"/>
</g>

<g fill="#ffffc0" fill-opacity="1" stroke="#ff0000" stroke-opacity="1" stroke-dasharray="1,2" stroke-dashoffset="0" stroke-width="1" stroke-linecap="square" stroke-linejoin="bevel" transform="matrix(1,0,0,1,-179,-157)"
font-family="Sans" font-size="10" font-weight="400" font-style="normal" 
>
<path vector-effect="non-scaling-stroke" fill-rule="evenodd" d="M532,446 L619,446 L619,472 L532,472 L532,446"/>
</g>

<g fill="#ffffc0" fill-opacity="1" stroke="#000000" stroke-opacity="1" stroke-width="1" stroke-linecap="square" stroke-linejoin="bevel" transform="matrix(1,0,0,1,-179,-157)"
font-family="Sans" font-size="10" font-weight="400" font-style="normal" 
>
<text fill="#000000" fill-opacity="1" stroke="none" xml:space="preserve" x="537" y="462" font-family="Sans" font-size="10" font-weight="400" font-style="normal" 
 >Representer</text>
</g>

<g fill="#ffffc0" fill-opacity="1" stroke="#000000" stroke-opacity="1" stroke-width="1" stroke-linecap="square" stroke-linejoin="bevel" transform="matrix(1,0,0,1,-179,-157)"
font-family="Sans" font-size="10" font-weight="700" font-style="normal" 
>
<text fill="#000000" fill-opacity="1" stroke="none" xml:space="preserve" x="460" y="491" font-family="Sans" font-size="10" font-weight="700" font-style="normal" 
 >PCAModelBuilder</text>
</g>

<g fill="#ffffc0" fill-opacity="1" stroke="#ff0000" stroke-opacity="1" stroke-width="1" stroke-linecap="square" stroke-linejoin="bevel" transform="matrix(1,0,0,1,-179,-157)"
font-family="Sans" font-size="10" font-weight="400" font-style="normal" 
>
<path vector-effect="non-scaling-stroke" fill-rule="evenodd" d="M282,557 L479,557 L479,599 L282,599 L282,557"/>
</g>

<g fill="#ffffc0" fill-opacity="1" stroke="#ff0000" stroke-opacity="1" stroke-dasharray="1,2" stroke-dashoffset="0" stroke-width="1" stroke-linecap="square" stroke-linejoin="bevel" transform="matrix(1,0,0,1,-179,-157)"
font-family="Sans" font-size="10" font-weight="400" font-style="normal" 
>
<path vector-effect="non-scaling-stroke" fill-rule="evenodd" d="M435,536 L522,536 L522,562 L435,562 L435,536"/>
</g>

<g fill="#ffffc0" fill-opacity="1" stroke="#000000" stroke-opacity="1" stroke-width="1" stroke-linecap="square" stroke-linejoin="bevel" transform="matrix(1,0,0,1,-179,-157)"
font-family="Sans" font-size="10" font-weight="400" font-style="normal" 
>
<text fill="#000000" fill-opacity="1" stroke="none" xml:space="preserve" x="440" y="552" font-family="Sans" font-size="10" font-weight="400" font-style="normal" 
 >Representer</text>
</g>

<g fill="#ffffc0" fill-opacity="1" stroke="#000000" stroke-opacity="1" stroke-width="1" stroke-linecap="square" stroke-linejoin="bevel" transform="matrix(1,0,0,1,-179,-157)"
font-family="Sans" font-size="10" font-weight="700" font-style="normal" 
>
<text fill="#000000" fill-opacity="1" stroke="none" xml:space="preserve" x="313" y="581" font-family="Sans" font-size="10" font-weight="700" font-style="normal" 
 >ConditionalModelBuilder</text>
</g>

<g fill="#ffffc0" fill-opacity="1" stroke="#ff0000" stroke-opacity="1" stroke-width="1" stroke-linecap="square" stroke-linejoin="bevel" transform="matrix(1,0,0,1,-179,-157)"
font-family="Sans" font-size="10" font-weight="400" font-style="normal" 
>
<path vector-effect="non-scaling-stroke" fill-rule="evenodd" d="M462,347 L569,347 L569,389 L462,389 L462,347"/>
</g>

<g fill="#ffffc0" fill-opacity="1" stroke="#ff0000" stroke-opacity="1" stroke-dasharray="1,2" stroke-dashoffset="0" stroke-width="1" stroke-linecap="square" stroke-linejoin="bevel" transform="matrix(1,0,0,1,-179,-157)"
font-family="Sans" font-size="10" font-weight="400" font-style="normal" 
>
<path vector-effect="non-scaling-stroke" fill-rule="evenodd" d="M525,326 L612,326 L612,352 L525,352 L525,326"/>
</g>

<g fill="#ffffc0" fill-opacity="1" stroke="#000000" stroke-opacity="1" stroke-width="1" stroke-linecap="square" stroke-linejoin="bevel" transform="matrix(1,0,0,1,-179,-157)"
font-family="Sans" font-size="10" font-weight="400" font-style="normal" 
>
<text fill="#000000" fill-opacity="1" stroke="none" xml:space="preserve" x="530" y="342" font-family="Sans" font-size="10" font-weight="400" font-style="normal" 
 >Representer</text>
</g>

<g fill="#ffffc0" fill-opacity="1" stroke="#000000" stroke-opacity="1" stroke-width="1" stroke-linecap="square" stroke-linejoin="bevel" transform="matrix(1,0,0,1,-179,-157)"
font-family="Sans" font-size="10" font-weight="700" font-style="normal" 
>
<text fill="#000000" fill-opacity="1" stroke="none" xml:space="preserve" x="479.5" y="371" font-family="Sans" font-size="10" font-weight="700" font-style="normal" 
 >ModelBuilder</text>
</g>

<g fill="none" stroke="#323232" stroke-opacity="1" stroke-width="1" stroke-linecap="square" stroke-linejoin="bevel" transform="matrix(1,0,0,1,-179,-157)"
font-family="Sans" font-size="10" font-weight="400" font-style="normal" 
>
<text fill="#323232" fill-opacity="1" stroke="none" xml:space="preserve" x="804" y="449" font-family="Sans" font-size="10" font-weight="400" font-style="normal" 
 >1</text>
</g>

<g fill="none" stroke="#323232" stroke-opacity="1" stroke-width="1" stroke-linecap="square" stroke-linejoin="bevel" transform="matrix(1,0,0,1,-179,-157)"
font-family="Sans Serif" font-size="10" font-weight="400" font-style="normal" 
>
<text fill="#323232" fill-opacity="1" stroke="none" xml:space="preserve" x="252.5" y="320" font-family="Sans Serif" font-size="10" font-weight="400" font-style="normal" 
 >manages</text>
</g>

<g fill="none" stroke="#323232" stroke-opacity="1" stroke-width="1" stroke-linecap="square" stroke-linejoin="bevel" transform="matrix(1,0,0,1,-179,-157)"
font-family="Sans Serif" font-size="10" font-weight="400" font-style="normal" 
>
<text fill="#323232" fill-opacity="1" stroke="none" xml:space="preserve" x="341" y="372" font-family="Sans Serif" font-size="10" font-weight="400" font-style="normal" 
 >*</text>
</g>

<g fill="none" stroke="#323232" stroke-opacity="1" stroke-width="1" stroke-linecap="square" stroke-linejoin="bevel" transform="matrix(1,0,0,1,-179,-157)"
font-family="Sans Serif" font-size="10" font-weight="400" font-style="normal" 
>
<text fill="#323232" fill-opacity="1" stroke="none" xml:space="preserve" x="581" y="424" font-family="Sans Serif" font-size="10" font-weight="400" font-style="normal" 
 >1</text>
</g>

<g fill="none" stroke="#323232" stroke-opacity="1" stroke-width="1" stroke-linecap="square" stroke-linejoin="bevel" transform="matrix(1,0,0,1,-179,-157)"
font-family="Sans Serif" font-size="10" font-weight="400" font-style="normal" 
>
<text fill="#323232" fill-opacity="1" stroke="none" xml:space="preserve" x="789" y="332" font-family="Sans Serif" font-size="10" font-weight="400" font-style="normal" 
 >1</text>
</g>

<g fill="#ffffc0" fill-opacity="1" stroke="#ff0000" stroke-opacity="1" stroke-width="1" stroke-linecap="square" stroke-linejoin="bevel" transform="matrix(1,0,0,1,-179,-157)"
font-family="Sans Serif" font-size="10" font-weight="400" font-style="normal" 
>
<path vector-effect="non-scaling-stroke" fill-rule="evenodd" d="M802,190 L1046,190 L1046,454 L802,454 L802,190"/>
</g>

<g fill="#ffffc0" fill-opacity="1" stroke="#ff0000" stroke-opacity="1" stroke-dasharray="1,2" stroke-dashoffset="0" stroke-width="1" stroke-linecap="square" stroke-linejoin="bevel" transform="matrix(1,0,0,1,-179,-157)"
font-family="Sans Serif" font-size="10" font-weight="400" font-style="normal" 
>
<path vector-effect="non-scaling-stroke" fill-rule="evenodd" d="M1002,169 L1089,169 L1089,195 L1002,195 L1002,169"/>
</g>

<g fill="#ffffc0" fill-opacity="1" stroke="#000000" stroke-opacity="1" stroke-width="1" stroke-linecap="square" stroke-linejoin="bevel" transform="matrix(1,0,0,1,-179,-157)"
font-family="Sans Serif" font-size="10" font-weight="400" font-style="normal" 
>
<text fill="#000000" fill-opacity="1" stroke="none" xml:space="preserve" x="1007" y="185" font-family="Sans Serif" font-size="10" font-weight="400" font-style="normal" 
 >Representer</text>
</g>

<g fill="#ffffc0" fill-opacity="1" stroke="#000000" stroke-opacity="1" stroke-width="1" stroke-linecap="square" stroke-linejoin="bevel" transform="matrix(1,0,0,1,-179,-157)"
font-family="Sans Serif" font-size="10" font-weight="700" font-style="normal" 
>
<text fill="#000000" fill-opacity="1" stroke="none" xml:space="preserve" x="879" y="201" font-family="Sans Serif" font-size="10" font-weight="700" font-style="normal" 
 >StatisticalModel</text>
</g>

<g fill="#ffffc0" fill-opacity="1" stroke="#ff0000" stroke-opacity="1" stroke-width="1" stroke-linecap="square" stroke-linejoin="bevel" transform="matrix(1,0,0,1,-179,-157)"
font-family="Sans Serif" font-size="10" font-weight="700" font-style="normal" 
>
<polyline fill="none" vector-effect="non-scaling-stroke" points="802,206 1045,206 " />
</g>

<g fill="#ffffc0" fill-opacity="1" stroke="#ff0000" stroke-opacity="1" stroke-width="1" stroke-linecap="square" stroke-linejoin="bevel" transform="matrix(1,0,0,1,-179,-157)"
font-family="Sans Serif" font-size="10" font-weight="400" font-style="normal" 
>
<polyline fill="none" vector-effect="non-scaling-stroke" points="802,214 1045,214 " />
</g>

<g fill="#ffffc0" fill-opacity="1" stroke="#000000" stroke-opacity="1" stroke-width="1" stroke-linecap="square" stroke-linejoin="bevel" transform="matrix(1,0,0,1,-179,-157)"
font-family="Sans Serif" font-size="10" font-weight="400" font-style="normal" 
>
<text fill="#000000" fill-opacity="1" stroke="none" xml:space="preserve" x="807" y="225" font-family="Sans Serif" font-size="10" font-weight="400" font-style="normal" 
 >Load()</text>
</g>

<g fill="none" stroke="#000000" stroke-opacity="1" stroke-width="1" stroke-linecap="butt" stroke-linejoin="bevel" transform="matrix(1,0,0,1,-179,-157)"
font-family="Sans Serif" font-size="10" font-weight="400" font-style="normal" 
>
<polyline fill="none" vector-effect="none" points="807,226 839,226 " />
</g>

<g fill="#ffffc0" fill-opacity="1" stroke="#000000" stroke-opacity="1" stroke-width="1" stroke-linecap="square" stroke-linejoin="bevel" transform="matrix(1,0,0,1,-179,-157)"
font-family="Sans Serif" font-size="10" font-weight="400" font-style="normal" 
>
<text fill="#000000" fill-opacity="1" stroke="none" xml:space="preserve" x="807" y="241" font-family="Sans Serif" font-size="10" font-weight="400" font-style="normal" 
 >Save()</text>
</g>

<g fill="#ffffc0" fill-opacity="1" stroke="#000000" stroke-opacity="1" stroke-width="1" stroke-linecap="square" stroke-linejoin="bevel" transform="matrix(1,0,0,1,-179,-157)"
font-family="Sans Serif" font-size="10" font-weight="400" font-style="normal" 
>
<text fill="#000000" fill-opacity="1" stroke="none" xml:space="preserve" x="807" y="257" font-family="Sans Serif" font-size="10" font-weight="400" font-style="normal" 
 >GetNumberOfPrincipalComponents()</text>
</g>

<g fill="#ffffc0" fill-opacity="1" stroke="#000000" stroke-opacity="1" stroke-width="1" stroke-linecap="square" stroke-linejoin="bevel" transform="matrix(1,0,0,1,-179,-157)"
font-family="Sans Serif" font-size="10" font-weight="400" font-style="normal" 
>
<text fill="#000000" fill-opacity="1" stroke="none" xml:space="preserve" x="807" y="273" font-family="Sans Serif" font-size="10" font-weight="400" font-style="normal" 
 >GetModelInfo()</text>
</g>

<g fill="#ffffc0" fill-opacity="1" stroke="#000000" stroke-opacity="1" stroke-width="1" stroke-linecap="square" stroke-linejoin="bevel" transform="matrix(1,0,0,1,-179,-157)"
font-family="Sans Serif" font-size="10" font-weight="400" font-style="normal" 
>
<text fill="#000000" fill-opacity="1" stroke="none" xml:space="preserve" x="807" y="289" font-family="Sans Serif" font-size="10" font-weight="400" font-style="normal" 
 >DrawSample()</text>
</g>

<g fill="#ffffc0" fill-opacity="1" stroke="#000000" stroke-opacity="1" stroke-width="1" stroke-linecap="square" stroke-linejoin="bevel" transform="matrix(1,0,0,1,-179,-157)"
font-family="Sans Serif" font-size="10" font-weight="400" font-style="normal" 
>
<text fill="#000000" fill-opacity="1" stroke="none" xml:space="preserve" x="807" y="305" font-family="Sans Serif" font-size="10" font-weight="400" font-style="normal" 
 >DrawSampleAtPoint()</text>
</g>

<g fill="#ffffc0" fill-opacity="1" stroke="#000000" stroke-opacity="1" stroke-width="1" stroke-linecap="square" stroke-linejoin="bevel" transform="matrix(1,0,0,1,-179,-157)"
font-family="Sans Serif" font-size="10" font-weight="400" font-style="normal" 
>
<text fill="#000000" fill-opacity="1" stroke="none" xml:space="preserve" x="807" y="321" font-family="Sans Serif" font-size="10" font-weight="400" font-style="normal" 
 >GetCovarianceAtPoint()</text>
</g>

<g fill="#ffffc0" fill-opacity="1" stroke="#000000" stroke-opacity="1" stroke-width="1" stroke-linecap="square" stroke-linejoin="bevel" transform="matrix(1,0,0,1,-179,-157)"
font-family="Sans Serif" font-size="10" font-weight="400" font-style="normal" 
>
<text fill="#000000" fill-opacity="1" stroke="none" xml:space="preserve" x="807" y="337" font-family="Sans Serif" font-size="10" font-weight="400" font-style="normal" 
 >GetCovarianceMatrix()</text>
</g>

<g fill="#ffffc0" fill-opacity="1" stroke="#000000" stroke-opacity="1" stroke-width="1" stroke-linecap="square" stroke-linejoin="bevel" transform="matrix(1,0,0,1,-179,-157)"
font-family="Sans Serif" font-size="10" font-weight="400" font-style="normal" 
>
<text fill="#000000" fill-opacity="1" stroke="none" xml:space="preserve" x="807" y="353" font-family="Sans Serif" font-size="10" font-weight="400" font-style="normal" 
 >ComputeProbabilityOfDataset()</text>
</g>

<g fill="#ffffc0" fill-opacity="1" stroke="#000000" stroke-opacity="1" stroke-width="1" stroke-linecap="square" stroke-linejoin="bevel" transform="matrix(1,0,0,1,-179,-157)"
font-family="Sans Serif" font-size="10" font-weight="400" font-style="normal" 
>
<text fill="#000000" fill-opacity="1" stroke="none" xml:space="preserve" x="807" y="369" font-family="Sans Serif" font-size="10" font-weight="400" font-style="normal" 
 >ComputeLogProbabilityOfDataset()</text>
</g>

<g fill="#ffffc0" fill-opacity="1" stroke="#000000" stroke-opacity="1" stroke-width="1" stroke-linecap="square" stroke-linejoin="bevel" transform="matrix(1,0,0,1,-179,-157)"
font-family="Sans Serif" font-size="10" font-weight="400" font-style="normal" 
>
<text fill="#000000" fill-opacity="1" stroke="none" xml:space="preserve" x="807" y="385" font-family="Sans Serif" font-size="10" font-weight="400" font-style="normal" 
 >ComputeCoefficientsForDataset()</text>
</g>

<g fill="#ffffc0" fill-opacity="1" stroke="#000000" stroke-opacity="1" stroke-width="1" stroke-linecap="square" stroke-linejoin="bevel" transform="matrix(1,0,0,1,-179,-157)"
font-family="Sans Serif" font-size="10" font-weight="400" font-style="normal" 
>
<text fill="#000000" fill-opacity="1" stroke="none" xml:space="preserve" x="807" y="401" font-family="Sans Serif" font-size="10" font-weight="400" font-style="normal" 
 >GetPCAVarianceVector()</text>
</g>

<g fill="#ffffc0" fill-opacity="1" stroke="#000000" stroke-opacity="1" stroke-width="1" stroke-linecap="square" stroke-linejoin="bevel" transform="matrix(1,0,0,1,-179,-157)"
font-family="Sans Serif" font-size="10" font-weight="400" font-style="normal" 
>
<text fill="#000000" fill-opacity="1" stroke="none" xml:space="preserve" x="807" y="417" font-family="Sans Serif" font-size="10" font-weight="400" font-style="normal" 
 >GetPCABasisMatrix()</text>
</g>

<g fill="#ffffc0" fill-opacity="1" stroke="#000000" stroke-opacity="1" stroke-width="1" stroke-linecap="square" stroke-linejoin="bevel" transform="matrix(1,0,0,1,-179,-157)"
font-family="Sans Serif" font-size="10" font-weight="400" font-style="normal" 
>
<text fill="#000000" fill-opacity="1" stroke="none" xml:space="preserve" x="807" y="433" font-family="Sans Serif" font-size="10" font-weight="400" font-style="normal" 
 >GetRepresenter()</text>
</g>

<g fill="#ffffc0" fill-opacity="1" stroke="#000000" stroke-opacity="1" stroke-width="1" stroke-linecap="square" stroke-linejoin="bevel" transform="matrix(1,0,0,1,-179,-157)"
font-family="Sans Serif" font-size="10" font-weight="400" font-style="normal" 
>
<text fill="#000000" fill-opacity="1" stroke="none" xml:space="preserve" x="807" y="449" font-family="Sans Serif" font-size="10" font-weight="400" font-style="normal" 
 >GetDomain()</text>
</g>

<g fill="#ffffc0" fill-opacity="1" stroke="#ff0000" stroke-opacity="1" stroke-width="1" stroke-linecap="square" stroke-linejoin="bevel" transform="matrix(1,0,0,1,-179,-157)"
font-family="Sans Serif" font-size="10" font-weight="400" font-style="normal" 
>
<path vector-effect="non-scaling-stroke" fill-rule="evenodd" d="M191,371 L291,371 L291,413 L191,413 L191,371"/>
</g>

<g fill="#ffffc0" fill-opacity="1" stroke="#ff0000" stroke-opacity="1" stroke-dasharray="1,2" stroke-dashoffset="0" stroke-width="1" stroke-linecap="square" stroke-linejoin="bevel" transform="matrix(1,0,0,1,-179,-157)"
font-family="Sans Serif" font-size="10" font-weight="400" font-style="normal" 
>
<path vector-effect="non-scaling-stroke" fill-rule="evenodd" d="M247,350 L334,350 L334,376 L247,376 L247,350"/>
</g>

<g fill="#ffffc0" fill-opacity="1" stroke="#000000" stroke-opacity="1" stroke-width="1" stroke-linecap="square" stroke-linejoin="bevel" transform="matrix(1,0,0,1,-179,-157)"
font-family="Sans" font-size="10" font-weight="400" font-style="normal" 
>
<text fill="#000000" fill-opacity="1" stroke="none" xml:space="preserve" x="252" y="366" font-family="Sans" font-size="10" font-weight="400" font-style="normal" 
 >Representer</text>
</g>

<g fill="#ffffc0" fill-opacity="1" stroke="#000000" stroke-opacity="1" stroke-width="1" stroke-linecap="square" stroke-linejoin="bevel" transform="matrix(1,0,0,1,-179,-157)"
font-family="Sans" font-size="10" font-weight="700" font-style="normal" 
>
<text fill="#000000" fill-opacity="1" stroke="none" xml:space="preserve" x="206.5" y="395" font-family="Sans" font-size="10" font-weight="700" font-style="normal" 
 >SampleData</text>
</g>

<g fill="none" stroke="#323232" stroke-opacity="1" stroke-width="1" stroke-linecap="square" stroke-linejoin="bevel" transform="matrix(1,0,0,1,-179,-157)"
font-family="Sans Serif" font-size="10" font-weight="400" font-style="normal" 
>
<text fill="#323232" fill-opacity="1" stroke="none" xml:space="preserve" x="748.5" y="242" font-family="Sans Serif" font-size="10" font-weight="400" font-style="normal" 
 >is defined on</text>
</g>

<g fill="none" stroke="#323232" stroke-opacity="1" stroke-width="1" stroke-linecap="square" stroke-linejoin="bevel" transform="matrix(1,0,0,1,-179,-157)"
font-family="Sans Serif" font-size="10" font-weight="400" font-style="normal" 
>
<text fill="#323232" fill-opacity="1" stroke="none" xml:space="preserve" x="789" y="220" font-family="Sans Serif" font-size="10" font-weight="400" font-style="normal" 
 >1</text>
</g>

<g fill="none" stroke="#323232" stroke-opacity="1" stroke-width="1" stroke-linecap="square" stroke-linejoin="bevel" transform="matrix(1,0,0,1,-179,-157)"
font-family="Sans Serif" font-size="10" font-weight="400" font-style="normal" 
>
<text fill="#323232" fill-opacity="1" stroke="none" xml:space="preserve" x="674" y="220" font-family="Sans Serif" font-size="10" font-weight="400" font-style="normal" 
 >1</text>
</g>

<g fill="none" stroke="#323232" stroke-opacity="1" stroke-width="1" stroke-linecap="square" stroke-linejoin="bevel" transform="matrix(1,0,0,1,-179,-157)"
font-family="Sans" font-size="10" font-weight="400" font-style="normal" 
>
<text fill="#323232" fill-opacity="1" stroke="none" xml:space="preserve" x="790" y="460" font-family="Sans" font-size="10" font-weight="400" font-style="normal" 
 >stores</text>
</g>

<g fill="none" stroke="#323232" stroke-opacity="1" stroke-width="1" stroke-linecap="square" stroke-linejoin="bevel" transform="matrix(1,0,0,1,-179,-157)"
font-family="Sans" font-size="10" font-weight="400" font-style="normal" 
>
<text fill="#323232" fill-opacity="1" stroke="none" xml:space="preserve" x="752" y="453" font-family="Sans" font-size="10" font-weight="400" font-style="normal" 
 >1</text>
</g>

<g fill="none" stroke="#323232" stroke-opacity="1" stroke-width="1" stroke-linecap="square" stroke-linejoin="bevel" transform="matrix(1,0,0,1,-179,-157)"
font-family="Sans Serif" font-size="10" font-weight="400" font-style="normal" 
>
<text fill="#323232" fill-opacity="1" stroke="none" xml:space="preserve" x="247" y="304" font-family="Sans Serif" font-size="10" font-weight="400" font-style="normal" 
 >1</text>
</g>

<g fill="none" stroke="#323232" stroke-opacity="1" stroke-width="1" stroke-linecap="square" stroke-linejoin="bevel" transform="matrix(1,0,0,1,-179,-157)"
font-family="Sans Serif" font-size="10" font-weight="400" font-style="normal" 
>
<text fill="#323232" fill-opacity="1" stroke="none" xml:space="preserve" x="247" y="342" font-family="Sans Serif" font-size="10" font-weight="400" font-style="normal" 
 >*</text>
</g>

<g fill="none" stroke="#323232" stroke-opacity="1" stroke-width="1" stroke-linecap="square" stroke-linejoin="bevel" transform="matrix(1,0,0,1,-179,-157)"
font-family="Sans Serif" font-size="10" font-weight="400" font-style="normal" 
>
<text fill="#323232" fill-opacity="1" stroke="none" xml:space="preserve" x="332.5" y="400" font-family="Sans Serif" font-size="10" font-weight="400" font-style="normal" 
 >builds model from</text>
</g>

<g fill="none" stroke="#323232" stroke-opacity="1" stroke-width="1" stroke-linecap="square" stroke-linejoin="bevel" transform="matrix(1,0,0,1,-179,-157)"
font-family="Sans Serif" font-size="10" font-weight="400" font-style="normal" 
>
<text fill="#323232" fill-opacity="1" stroke="none" xml:space="preserve" x="449" y="372" font-family="Sans Serif" font-size="10" font-weight="400" font-style="normal" 
 >1</text>
</g>

<g fill="none" stroke="#323232" stroke-opacity="1" stroke-width="1" stroke-linecap="square" stroke-linejoin="bevel" transform="matrix(1,0,0,1,-179,-157)"
font-family="Sans Serif" font-size="10" font-weight="400" font-style="normal" 
>
<text fill="#323232" fill-opacity="1" stroke="none" xml:space="preserve" x="640.5" y="428" font-family="Sans Serif" font-size="10" font-weight="400" font-style="normal" 
 >collects</text>
</g>

<g fill="none" stroke="#323232" stroke-opacity="1" stroke-width="1" stroke-linecap="square" stroke-linejoin="bevel" transform="matrix(1,0,0,1,-179,-157)"
font-family="Sans Serif" font-size="10" font-weight="400" font-style="normal" 
>
<text fill="#323232" fill-opacity="1" stroke="none" xml:space="preserve" x="679" y="449" font-family="Sans Serif" font-size="10" font-weight="400" font-style="normal" 
 >1</text>
</g>

<g fill="none" stroke="#323232" stroke-opacity="1" stroke-width="1" stroke-linecap="square" stroke-linejoin="bevel" transform="matrix(1,0,0,1,-179,-157)"
font-family="Sans Serif" font-size="10" font-weight="400" font-style="normal" 
>
<text fill="#323232" fill-opacity="1" stroke="none" xml:space="preserve" x="716" y="350" font-family="Sans Serif" font-size="10" font-weight="400" font-style="normal" 
 >builds</text>
</g>

<g fill="none" stroke="#323232" stroke-opacity="1" stroke-width="1" stroke-linecap="square" stroke-linejoin="bevel" transform="matrix(1,0,0,1,-179,-157)"
font-family="Sans Serif" font-size="10" font-weight="400" font-style="normal" 
>
<text fill="#323232" fill-opacity="1" stroke="none" xml:space="preserve" x="619" y="330" font-family="Sans Serif" font-size="10" font-weight="400" font-style="normal" 
 >1</text>
</g>

<g fill="#ffffc0" fill-opacity="1" stroke="#ff0000" stroke-opacity="1" stroke-width="1" stroke-linecap="square" stroke-linejoin="bevel" transform="matrix(1,0,0,1,-179,-157)"
font-family="Sans Serif" font-size="10" font-weight="400" font-style="normal" 
>
<path vector-effect="non-scaling-stroke" fill-rule="evenodd" d="M484,232 L632,232 L632,288 L484,288 L484,232"/>
</g>

<g fill="#ffffc0" fill-opacity="1" stroke="#ff0000" stroke-opacity="1" stroke-dasharray="1,2" stroke-dashoffset="0" stroke-width="1" stroke-linecap="square" stroke-linejoin="bevel" transform="matrix(1,0,0,1,-179,-157)"
font-family="Sans Serif" font-size="10" font-weight="400" font-style="normal" 
>
<path vector-effect="non-scaling-stroke" fill-rule="evenodd" d="M597,211 L667,211 L667,237 L597,237 L597,211"/>
</g>

<g fill="#ffffc0" fill-opacity="1" stroke="#000000" stroke-opacity="1" stroke-width="1" stroke-linecap="square" stroke-linejoin="bevel" transform="matrix(1,0,0,1,-179,-157)"
font-family="Sans Serif" font-size="10" font-weight="400" font-style="normal" 
>
<text fill="#000000" fill-opacity="1" stroke="none" xml:space="preserve" x="602" y="227" font-family="Sans Serif" font-size="10" font-weight="400" font-style="normal" 
 >PointType</text>
</g>

<g fill="#ffffc0" fill-opacity="1" stroke="#000000" stroke-opacity="1" stroke-width="1" stroke-linecap="square" stroke-linejoin="bevel" transform="matrix(1,0,0,1,-179,-157)"
font-family="Sans Serif" font-size="10" font-weight="700" font-style="normal" 
>
<text fill="#000000" fill-opacity="1" stroke="none" xml:space="preserve" x="536.5" y="243" font-family="Sans Serif" font-size="10" font-weight="700" font-style="normal" 
 >Domain</text>
</g>

<g fill="#ffffc0" fill-opacity="1" stroke="#ff0000" stroke-opacity="1" stroke-width="1" stroke-linecap="square" stroke-linejoin="bevel" transform="matrix(1,0,0,1,-179,-157)"
font-family="Sans Serif" font-size="10" font-weight="700" font-style="normal" 
>
<polyline fill="none" vector-effect="non-scaling-stroke" points="484,248 631,248 " />
</g>

<g fill="#ffffc0" fill-opacity="1" stroke="#ff0000" stroke-opacity="1" stroke-width="1" stroke-linecap="square" stroke-linejoin="bevel" transform="matrix(1,0,0,1,-179,-157)"
font-family="Sans Serif" font-size="10" font-weight="400" font-style="normal" 
>
<polyline fill="none" vector-effect="non-scaling-stroke" points="484,256 631,256 " />
</g>

<g fill="#ffffc0" fill-opacity="1" stroke="#000000" stroke-opacity="1" stroke-width="1" stroke-linecap="square" stroke-linejoin="bevel" transform="matrix(1,0,0,1,-179,-157)"
font-family="Sans Serif" font-size="10" font-weight="400" font-style="normal" 
>
<text fill="#000000" fill-opacity="1" stroke="none" xml:space="preserve" x="489" y="267" font-family="Sans Serif" font-size="10" font-weight="400" font-style="normal" 
 >GetDomainPoints()</text>
</g>

<g fill="#ffffc0" fill-opacity="1" stroke="#000000" stroke-opacity="1" stroke-width="1" stroke-linecap="square" stroke-linejoin="bevel" transform="matrix(1,0,0,1,-179,-157)"
font-family="Sans Serif" font-size="10" font-weight="400" font-style="normal" 
>
<text fill="#000000" fill-opacity="1" stroke="none" xml:space="preserve" x="489" y="283" font-family="Sans Serif" font-size="10" font-weight="400" font-style="normal" 
 >GetNumberOfPoints()</text>
</g>
</g>
</svg>
